<svg xmlns="http://www.w3.org/2000/svg" xmlns:xlink="http://www.w3.org/1999/xlink" fill="none" version="1.1" width="372" height="372" viewBox="0 0 372 372"><defs><clipPath id="master_svg0_34_054"><rect x="0" y="0" width="372" height="372" rx="0"/></clipPath><clipPath id="master_svg1_34_55"><rect x="0" y="78" width="372" height="216" rx="0"/></clipPath></defs><g clip-path="url(#master_svg0_34_054)"><rect x="0" y="0" width="372" height="372" rx="0" fill="#008FBE" fill-opacity="1"/><g clip-path="url(#master_svg1_34_55)"><g><rect x="0" y="78" width="372" height="216" rx="0" fill="#008FBE" fill-opacity="1"/></g><g><path d="M210.749990234375,151.77999926757812L226.609990234375,151.77999926757812L226.609990234375,158.08999926757812C230.646990234375,152.91021926757813,236.873990234375,149.91690066757812,243.439990234375,149.99999996757813C250.698990234375,149.88455196757812,257.450990234375,153.71203926757812,261.07999023437503,159.99999926757812C266.739990234375,151.90999926757812,275.31999023437504,149.99999996757813,281.299990234375,149.99999996757813C289.549990234375,149.99999996757813,296.82999023437503,153.88000926757812,300.719990234375,160.67999926757813C302.009990234375,162.94999926757814,304.27999023437496,167.95999926757813,304.27999023437496,177.82999926757813L304.27999023437496,219.89999926757812L288.419990234375,219.89999926757812L288.419990234375,182.35999926757813C288.419990234375,174.7599992675781,287.609990234375,171.67999926757813,286.959990234375,170.22999926757814C285.959990234375,167.63999926757813,283.559990234375,164.22999926757814,277.89999023437497,164.22999926757814C274.152990234375,164.29979926757812,270.666990234375,166.15849926757812,268.519990234375,169.22999926757814C265.769990234375,173.10999926757813,265.44999023437504,178.93999926757812,265.44999023437504,184.7599992675781L265.44999023437504,219.89999926757812L249.579990234375,219.89999926757812L249.579990234375,182.35999926757813C249.579990234375,174.7599992675781,248.769990234375,171.67999926757813,248.119990234375,170.22999926757814C247.119990234375,167.63999926757813,244.719990234375,164.22999926757814,239.059990234375,164.22999926757814C235.312990234375,164.29979926757812,231.826990234375,166.15849926757812,229.679990234375,169.22999926757814C226.929990234375,173.10999926757813,226.609990234375,178.93999926757812,226.609990234375,184.7599992675781L226.609990234375,219.89999926757812L210.749990234375,219.89999926757812L210.749990234375,151.77999926757812ZM155.849990234375,151.77999926757812L171.709990234375,151.77999926757812L171.709990234375,157.92998926757812C173.604990234375,155.70235926757812,175.842990234375,153.79162926757812,178.339990234375,152.26998926757813C181.303990234375,150.62954726757812,184.665990234375,149.84371926757814,188.049990234375,149.99999996757813C192.423990234375,149.9001464675781,196.738990234375,151.02215926757813,200.509990234375,153.23998926757812L193.999990234375,167.63999926757813C191.607990234375,166.03729926757813,188.788990234375,165.19059926757814,185.90999023437502,165.20999926757813C182.50999023437498,165.20999926757813,179.119990234375,165.68999926757812,176.039990234375,168.92999926757813C171.669990234375,173.61999926757812,171.669990234375,180.08999926757812,171.669990234375,184.61999926757812L171.669990234375,219.89999926757812L155.859990234375,219.89999926757812L155.849990234375,151.77999926757812ZM83.899990234375,186.07999926757813C83.899990234375,197.88999926757813,91.339990234375,207.7599992675781,102.829990234375,207.7599992675781C112.829990234375,207.7599992675781,122.079990234375,200.47999926757814,122.079990234375,186.23999926757813C122.079990234375,171.3499992675781,112.859990234375,164.23999926757813,102.829990234375,164.23999926757813C91.339990234375,164.23999926757813,83.899990234375,173.94999926757814,83.899990234375,186.07999926757813ZM121.109990234375,151.77999926757812L136.999990234375,151.77999926757812L136.999990234375,219.89999926757812L121.119990234375,219.89999926757812L121.119990234375,212.77999926757812C116.049390234375,218.74919926757812,108.57109023437499,222.13239926757814,100.739990234375,221.99999926757812C79.739990234375,221.99999926757812,67.739990234375,204.52999926757812,67.739990234375,185.7599992675781C67.739990234375,163.58999926757812,82.94999023437501,149.99999996757813,100.909990234375,149.99999996757813C108.814690234375,149.83120726757812,116.327190234375,153.43706926757812,121.139990234375,159.70998926757812L121.109990234375,151.77999926757812Z" fill="#FFFFFF" fill-opacity="1"/></g></g></g></svg>